<svg width="16" height="17" viewBox="0 0 16 17" fill="none" xmlns="http://www.w3.org/2000/svg">
<path d="M13.65 3.34999C12.02 1.71999 9.71002 0.779992 7.17002 1.03999C3.50002 1.40999 0.480021 4.38999 0.0700213 8.05999C-0.479979 12.91 3.27002 17 8.00002 17C11.19 17 13.93 15.13 15.21 12.44C15.53 11.77 15.05 11 14.31 11C13.94 11 13.59 11.2 13.43 11.53C12.3 13.96 9.59002 15.5 6.63002 14.84C4.41002 14.35 2.62002 12.54 2.15002 10.32C1.31002 6.43999 4.26002 2.99999 8.00002 2.99999C9.66002 2.99999 11.14 3.68999 12.22 4.77999L10.71 6.28999C10.08 6.91999 10.52 7.99999 11.41 7.99999H15C15.55 7.99999 16 7.54999 16 6.99999V3.40999C16 2.51999 14.92 2.06999 14.29 2.69999L13.65 3.34999Z" fill="#323232"/>
</svg>
