<svg width="24" height="24" viewBox="0 0 24 24" fill="none" xmlns="http://www.w3.org/2000/svg">
<path fill-rule="evenodd" clip-rule="evenodd" d="M12 20.5C16.6944 20.5 20.5 16.6944 20.5 12C20.5 7.30558 16.6944 3.5 12 3.5C7.30558 3.5 3.5 7.30558 3.5 12C3.5 16.6944 7.30558 20.5 12 20.5ZM12 22C17.5228 22 22 17.5228 22 12C22 6.47715 17.5228 2 12 2C6.47715 2 2 6.47715 2 12C2 17.5228 6.47715 22 12 22Z" fill="black"/>
<path fill-rule="evenodd" clip-rule="evenodd" d="M12 13.5C12.8284 13.5 13.5 12.8284 13.5 12C13.5 11.1716 12.8284 10.5 12 10.5C11.1716 10.5 10.5 11.1716 10.5 12C10.5 12.8284 11.1716 13.5 12 13.5ZM12 15C13.6569 15 15 13.6569 15 12C15 10.3431 13.6569 9 12 9C10.3431 9 9 10.3431 9 12C9 13.6569 10.3431 15 12 15Z" fill="black"/>
<path d="M11 0.75C11 0.335786 11.3358 0 11.75 0C12.1642 0 12.5 0.335787 12.5 0.75V4.25C12.5 4.66421 12.1642 5 11.75 5C11.3358 5 11 4.66421 11 4.25V0.75Z" fill="black"/>
<path d="M11 19.75C11 19.3358 11.3358 19 11.75 19C12.1642 19 12.5 19.3358 12.5 19.75V23.25C12.5 23.6642 12.1642 24 11.75 24C11.3358 24 11 23.6642 11 23.25V19.75Z" fill="black"/>
<path d="M19.75 12.5C19.3358 12.5 19 12.1642 19 11.75C19 11.3358 19.3358 11 19.75 11H23.25C23.6642 11 24 11.3358 24 11.75C24 12.1642 23.6642 12.5 23.25 12.5H19.75Z" fill="black"/>
<path d="M0.75 12.5C0.335786 12.5 0 12.1642 0 11.75C0 11.3358 0.335787 11 0.75 11H4.25C4.66421 11 5 11.3358 5 11.75C5 12.1642 4.66421 12.5 4.25 12.5H0.75Z" fill="black"/>
</svg>
