<svg width="34" height="34" viewBox="0 0 34 34" fill="none" xmlns="http://www.w3.org/2000/svg">
<rect width="34" height="34" rx="10" fill="#F44E4E"/>
<path d="M18.2812 20.125V21.6875C18.2812 22.1019 18.1249 22.4993 17.8465 22.7924C17.5681 23.0854 17.1906 23.25 16.7969 23.25H10.8594C10.4657 23.25 10.0881 23.0854 9.80976 22.7924C9.53139 22.4993 9.375 22.1019 9.375 21.6875V12.3125C9.375 11.8981 9.53139 11.5007 9.80976 11.2076C10.0881 10.9146 10.4657 10.75 10.8594 10.75H16.5C17.3197 10.75 18.2812 11.4496 18.2812 12.3125V13.875" stroke="white" stroke-width="1.8" stroke-linecap="round" stroke-linejoin="round"/>
<path d="M20.6562 20.125L23.625 17L20.6562 13.875" stroke="white" stroke-width="1.8" stroke-linecap="round" stroke-linejoin="round"/>
<path d="M13.5312 17H23.0312" stroke="white" stroke-width="1.8" stroke-linecap="round" stroke-linejoin="round"/>
</svg>
