<svg width="34" height="34" viewBox="0 0 34 34" fill="none" xmlns="http://www.w3.org/2000/svg">
<rect width="34" height="34" rx="10" fill="#438FEA"/>
<path d="M24.7505 23.9377L21.4107 15.422C21.349 15.2648 21.2444 15.1303 21.11 15.0357C20.9757 14.9411 20.8177 14.8906 20.6561 14.8906C20.4944 14.8906 20.3365 14.9411 20.2021 15.0357C20.0678 15.1303 19.9631 15.2648 19.9015 15.422L16.5616 23.9377C16.5201 24.0421 16.4986 24.1541 16.4983 24.2673C16.498 24.3806 16.519 24.4927 16.56 24.5974C16.6011 24.702 16.6613 24.7971 16.7374 24.8771C16.8134 24.9572 16.9037 25.0207 17.0032 25.0639C17.1026 25.1071 17.2091 25.1292 17.3167 25.1289C17.4242 25.1286 17.5307 25.106 17.6299 25.0623C17.7291 25.0186 17.8191 24.9547 17.8948 24.8742C17.9705 24.7938 18.0303 24.6984 18.0709 24.5935L18.7511 22.8595H22.5611L23.2413 24.5935C23.303 24.7509 23.4076 24.8854 23.542 24.98C23.6764 25.0747 23.8344 25.1252 23.9961 25.1252C24.1303 25.1251 24.2623 25.0902 24.3806 25.0236C24.4989 24.957 24.5998 24.8608 24.6744 24.7434C24.7489 24.626 24.7948 24.491 24.808 24.3505C24.8213 24.21 24.8014 24.0682 24.7502 23.9377H24.7505ZM19.4253 21.1408L20.6563 18.0021L21.8872 21.1408H19.4253Z" fill="white"/>
<path d="M16.9394 20.3953C17.0662 20.2109 17.1183 19.981 17.0843 19.7562C17.0503 19.5313 16.9329 19.3299 16.7579 19.1961C16.7505 19.1902 16.2013 18.7613 15.4038 17.8395C16.8752 15.7426 17.7087 13.357 18.0486 12.2344H19.2461C19.4626 12.2344 19.6703 12.1438 19.8234 11.9827C19.9765 11.8215 20.0625 11.6029 20.0625 11.375C20.0625 11.1471 19.9765 10.9285 19.8234 10.7673C19.6703 10.6062 19.4626 10.5156 19.2461 10.5156H14.9414V9.73438C14.9414 9.50645 14.8554 9.28787 14.7023 9.12671C14.5492 8.96554 14.3415 8.875 14.125 8.875C13.9085 8.875 13.7008 8.96554 13.5477 9.12671C13.3946 9.28787 13.3086 9.50645 13.3086 9.73438V10.5156H9.00391C8.78738 10.5156 8.57973 10.6062 8.42662 10.7673C8.27351 10.9285 8.1875 11.1471 8.1875 11.375C8.1875 11.6029 8.27351 11.8215 8.42662 11.9827C8.57973 12.1438 8.78738 12.2344 9.00391 12.2344H16.3237C15.9704 13.2871 15.3199 14.9492 14.3276 16.4672C13.162 14.8391 12.7289 13.7855 12.7256 13.777C12.6403 13.5694 12.4806 13.4056 12.2813 13.3211C12.082 13.2366 11.8591 13.2382 11.6609 13.3256C11.4627 13.413 11.3052 13.5791 11.2226 13.7879C11.1401 13.9967 11.139 14.2314 11.2197 14.441C11.2412 14.4949 11.7596 15.7781 13.1813 17.7195C13.2154 17.766 13.2492 17.8113 13.283 17.8566C11.8268 19.5891 10.3981 20.6637 9.80027 21.0105C9.61017 21.1197 9.46905 21.3039 9.40795 21.5225C9.34684 21.7412 9.37077 21.9765 9.47445 22.1766C9.57814 22.3767 9.75309 22.5252 9.96083 22.5895C10.1686 22.6539 10.3921 22.6287 10.5822 22.5195C10.6623 22.4734 12.3857 21.4691 14.3536 19.1762C15.1893 20.1168 15.7638 20.5605 15.7983 20.5863C15.8851 20.6527 15.9835 20.7004 16.0879 20.7268C16.1923 20.7531 16.3005 20.7575 16.4065 20.7397C16.5125 20.7219 16.6141 20.6823 16.7056 20.6231C16.797 20.564 16.8764 20.4864 16.9394 20.3949V20.3953Z" fill="white"/>
</svg>
