<svg width="34" height="34" viewBox="0 0 34 34" fill="none" xmlns="http://www.w3.org/2000/svg">
<rect width="34" height="34" rx="10" fill="#A2A2A6"/>
<path d="M24.6049 16.1222C23.8733 16.9375 22.9109 17.5269 21.837 17.8172C20.763 18.1076 19.6248 18.0861 18.5633 17.7555L10.9255 26.2678C10.5327 26.697 9.98091 26.9585 9.39013 26.9955C8.79935 27.0324 8.21742 26.8418 7.77095 26.4651C7.32447 26.0884 7.04958 25.556 7.00608 24.9839C6.96257 24.4118 7.15398 23.8462 7.53865 23.4101L15.1881 14.8895C14.7206 13.9453 14.5407 12.8915 14.6694 11.8517C14.798 10.8119 15.23 9.82921 15.9145 9.01885C16.5991 8.20848 17.5079 7.60405 18.5344 7.27643C19.5609 6.94881 20.6625 6.91159 21.71 7.16913L18.7822 10.4769L19.7387 13.1749L22.6325 13.7207L25.5656 10.4048C25.9709 11.3499 26.0959 12.386 25.9266 13.3963C25.7572 14.4066 25.3002 15.351 24.607 16.1233L24.6049 16.1222Z" fill="white"/>
</svg>
