<svg width="21" height="20" viewBox="0 0 21 20" fill="none" xmlns="http://www.w3.org/2000/svg">
<path d="M20.14 11.0002C19.9957 10.8808 19.8207 10.8045 19.6351 10.7797C19.4494 10.755 19.2606 10.7828 19.09 10.8602C18.0326 11.344 16.8829 11.5931 15.72 11.5902C13.5689 11.5876 11.506 10.7346 9.98115 9.21725C8.45632 7.69991 7.59321 5.64126 7.58001 3.49015C7.58457 2.81598 7.66848 2.1447 7.83001 1.49015C7.86429 1.31569 7.85143 1.13524 7.79277 0.967405C7.7341 0.799566 7.63175 0.650403 7.49626 0.535283C7.36076 0.420163 7.19702 0.343249 7.02191 0.312466C6.8468 0.281683 6.66665 0.298143 6.50001 0.360151C4.93234 1.06506 3.56958 2.15691 2.53977 3.53313C1.50996 4.90936 0.846893 6.52478 0.612862 8.22764C0.378832 9.9305 0.581519 11.6649 1.20188 13.2679C1.82225 14.8709 2.83993 16.2899 4.15931 17.3916C5.4787 18.4933 7.05649 19.2415 8.74446 19.566C10.4324 19.8904 12.1752 19.7804 13.809 19.2464C15.4428 18.7123 16.914 17.7717 18.0844 16.5129C19.2548 15.2541 20.0861 13.7184 20.5 12.0502C20.5504 11.8591 20.5431 11.6575 20.4791 11.4706C20.415 11.2837 20.297 11.12 20.14 11.0002ZM10.64 17.6902C8.96177 17.6783 7.32821 17.148 5.96301 16.1719C4.5978 15.1957 3.56768 13.8215 3.0137 12.2373C2.45971 10.6531 2.40895 8.93634 2.86835 7.32216C3.32776 5.70797 4.27487 4.27525 5.58001 3.22015V3.49015C5.58266 6.17863 6.65183 8.75624 8.55287 10.6573C10.4539 12.5583 13.0315 13.6275 15.72 13.6302C16.4259 13.6327 17.13 13.559 17.82 13.4102C17.1299 14.7157 16.0965 15.808 14.8312 16.5693C13.5659 17.3306 12.1167 17.732 10.64 17.7302V17.6902Z" fill="#A2A2A6"/>
</svg>
