<svg width="21" height="22" viewBox="0 0 21 22" fill="none" xmlns="http://www.w3.org/2000/svg">
<path d="M18.4 11.6599C18.2397 11.4774 18.1513 11.2428 18.1513 10.9999C18.1513 10.757 18.2397 10.5224 18.4 10.3399L19.68 8.89989C19.8211 8.74256 19.9087 8.5446 19.9302 8.3344C19.9518 8.12421 19.9062 7.91258 19.8 7.72989L17.8 4.2699C17.6949 4.08742 17.5349 3.94277 17.3428 3.85658C17.1506 3.77039 16.9362 3.74705 16.73 3.7899L14.85 4.1699C14.6108 4.21932 14.3618 4.17948 14.1499 4.0579C13.938 3.93631 13.778 3.74138 13.7 3.5099L13.09 1.6799C13.0229 1.48127 12.8951 1.30876 12.7246 1.18674C12.5542 1.06471 12.3497 0.999354 12.14 0.999895H8.14002C7.92195 0.988513 7.70615 1.04882 7.52558 1.17161C7.34501 1.2944 7.2096 1.47291 7.14002 1.6799L6.58002 3.5099C6.50202 3.74138 6.34199 3.93631 6.13013 4.0579C5.91827 4.17948 5.66924 4.21932 5.43002 4.1699L3.50002 3.7899C3.30457 3.76228 3.10532 3.79312 2.92737 3.87853C2.74941 3.96395 2.60072 4.10012 2.50002 4.2699L0.500018 7.72989C0.391178 7.91054 0.34224 8.12098 0.360201 8.33112C0.378161 8.54126 0.462101 8.74034 0.600018 8.89989L1.87002 10.3399C2.03034 10.5224 2.11875 10.757 2.11875 10.9999C2.11875 11.2428 2.03034 11.4774 1.87002 11.6599L0.600018 13.0999C0.462101 13.2595 0.378161 13.4585 0.360201 13.6687C0.34224 13.8788 0.391178 14.0892 0.500018 14.2699L2.50002 17.7299C2.60512 17.9124 2.76514 18.057 2.95727 18.1432C3.1494 18.2294 3.36384 18.2527 3.57002 18.2099L5.45002 17.8299C5.68924 17.7805 5.93827 17.8203 6.15013 17.9419C6.36199 18.0635 6.52202 18.2584 6.60002 18.4899L7.21002 20.3199C7.2796 20.5269 7.41501 20.7054 7.59558 20.8282C7.77615 20.951 7.99195 21.0113 8.21002 20.9999H12.21C12.4197 21.0004 12.6242 20.9351 12.7946 20.8131C12.9651 20.691 13.0929 20.5185 13.16 20.3199L13.77 18.4899C13.848 18.2584 14.008 18.0635 14.2199 17.9419C14.4318 17.8203 14.6808 17.7805 14.92 17.8299L16.8 18.2099C17.0062 18.2527 17.2206 18.2294 17.4128 18.1432C17.6049 18.057 17.7649 17.9124 17.87 17.7299L19.87 14.2699C19.9762 14.0872 20.0218 13.8756 20.0002 13.6654C19.9787 13.4552 19.8911 13.2572 19.75 13.0999L18.4 11.6599ZM16.91 12.9999L17.71 13.8999L16.43 16.1199L15.25 15.8799C14.5298 15.7327 13.7806 15.855 13.1446 16.2237C12.5086 16.5924 12.0302 17.1817 11.8 17.8799L11.42 18.9999H8.86002L8.50002 17.8599C8.26987 17.1617 7.7914 16.5724 7.15542 16.2037C6.51945 15.835 5.77024 15.7127 5.05002 15.8599L3.87002 16.0999L2.57002 13.8899L3.37002 12.9899C3.86197 12.4399 4.13395 11.7278 4.13395 10.9899C4.13395 10.252 3.86197 9.53992 3.37002 8.98989L2.57002 8.0899L3.85002 5.88989L5.03002 6.1299C5.75024 6.27712 6.49945 6.15478 7.13542 5.78609C7.7714 5.41741 8.24987 4.82805 8.48002 4.1299L8.86002 2.9999H11.42L11.8 4.13989C12.0302 4.83805 12.5086 5.42741 13.1446 5.79609C13.7806 6.16478 14.5298 6.28712 15.25 6.13989L16.43 5.8999L17.71 8.11989L16.91 9.0199C16.4236 9.56866 16.155 10.2766 16.155 11.0099C16.155 11.7432 16.4236 12.4511 16.91 12.9999ZM10.14 6.9999C9.34889 6.9999 8.57553 7.23449 7.91774 7.67402C7.25994 8.11354 6.74725 8.73826 6.4445 9.46916C6.14175 10.2001 6.06254 11.0043 6.21688 11.7803C6.37122 12.5562 6.75218 13.2689 7.31159 13.8283C7.871 14.3877 8.58373 14.7687 9.35966 14.923C10.1356 15.0774 10.9398 14.9982 11.6708 14.6954C12.4017 14.3927 13.0264 13.88 13.4659 13.2222C13.9054 12.5644 14.14 11.791 14.14 10.9999C14.14 9.93903 13.7186 8.92161 12.9684 8.17147C12.2183 7.42132 11.2009 6.9999 10.14 6.9999ZM10.14 12.9999C9.74446 12.9999 9.35778 12.8826 9.02888 12.6628C8.69998 12.4431 8.44363 12.1307 8.29226 11.7653C8.14088 11.3998 8.10128 10.9977 8.17845 10.6097C8.25562 10.2218 8.4461 9.86539 8.7258 9.58568C9.00551 9.30598 9.36188 9.11549 9.74984 9.03832C10.1378 8.96115 10.5399 9.00076 10.9054 9.15214C11.2708 9.30351 11.5832 9.55986 11.803 9.88875C12.0227 10.2177 12.14 10.6043 12.14 10.9999C12.14 11.5303 11.9293 12.039 11.5542 12.4141C11.1792 12.7892 10.6705 12.9999 10.14 12.9999Z" fill="#A2A2A6"/>
</svg>
