<svg width="20" height="20" viewBox="0 0 20 20" fill="none" xmlns="http://www.w3.org/2000/svg">
<path d="M9.02834 4.57334C9.34987 4.52405 9.67472 4.49954 10 4.50001C12.915 4.50001 15.6558 6.59917 17.2508 10C17.0069 10.5175 16.7314 11.0196 16.4258 11.5033C16.3288 11.6535 16.2779 11.8287 16.2792 12.0075C16.2812 12.2076 16.3486 12.4014 16.4712 12.5596C16.5937 12.7177 16.7646 12.8315 16.9578 12.8834C17.151 12.9353 17.3559 12.9226 17.5412 12.8472C17.7265 12.7718 17.8821 12.6379 17.9842 12.4658C18.4113 11.7948 18.7823 11.0896 19.0933 10.3575C19.1425 10.2431 19.1679 10.1199 19.1679 9.99542C19.1679 9.87092 19.1425 9.74772 19.0933 9.63334C17.2417 5.33417 13.7583 2.66667 10 2.66667C9.56979 2.66451 9.14025 2.70132 8.71667 2.77667C8.5963 2.79714 8.48113 2.84111 8.37774 2.90609C8.27436 2.97106 8.18479 3.05576 8.11414 3.15535C8.04349 3.25494 7.99314 3.36747 7.96598 3.48652C7.93882 3.60557 7.93538 3.7288 7.95584 3.84917C7.9763 3.96955 8.02028 4.08472 8.08525 4.1881C8.15023 4.29149 8.23493 4.38106 8.33452 4.45171C8.43411 4.52236 8.54664 4.57271 8.66569 4.59987C8.78473 4.62703 8.90796 4.63047 9.02834 4.61001V4.57334ZM2.40084 1.09917C2.31537 1.01371 2.21391 0.945908 2.10224 0.899652C1.99057 0.853397 1.87088 0.82959 1.75001 0.82959C1.62914 0.82959 1.50945 0.853397 1.39778 0.899652C1.28611 0.945908 1.18464 1.01371 1.09917 1.09917C0.926562 1.27179 0.82959 1.5059 0.82959 1.75001C0.82959 1.99412 0.926562 2.22823 1.09917 2.40084L3.94084 5.23334C2.64428 6.48141 1.61238 7.97783 0.906674 9.63334C0.856199 9.74899 0.830146 9.87382 0.830146 10C0.830146 10.1262 0.856199 10.251 0.906674 10.3667C2.75834 14.6658 6.24167 17.3333 10 17.3333C11.6474 17.322 13.2558 16.8315 14.6292 15.9217L17.5992 18.9008C17.6844 18.9868 17.7858 19.055 17.8975 19.1015C18.0092 19.148 18.129 19.172 18.25 19.172C18.371 19.172 18.4908 19.148 18.6025 19.1015C18.7142 19.055 18.8156 18.9868 18.9008 18.9008C18.9868 18.8156 19.055 18.7142 19.1015 18.6025C19.148 18.4908 19.172 18.371 19.172 18.25C19.172 18.129 19.148 18.0092 19.1015 17.8975C19.055 17.7858 18.9868 17.6844 18.9008 17.5992L2.40084 1.09917ZM8.23084 9.52334L10.4767 11.7692C10.3217 11.8136 10.1612 11.8352 10 11.8333C9.51378 11.8333 9.04746 11.6402 8.70364 11.2964C8.35983 10.9526 8.16667 10.4862 8.16667 10C8.1648 9.83885 8.18641 9.67827 8.23084 9.52334ZM10 15.5C7.08501 15.5 4.34417 13.4008 2.75834 10C3.35059 8.69261 4.19116 7.5127 5.23334 6.52584L6.85584 8.16667C6.47473 8.86224 6.32944 9.66262 6.44174 10.4478C6.55405 11.2329 6.91791 11.9604 7.47874 12.5213C8.03957 13.0821 8.76712 13.446 9.55225 13.5583C10.3374 13.6706 11.1378 13.5253 11.8333 13.1442L13.2908 14.5833C12.2927 15.1708 11.1581 15.4868 10 15.5Z" fill="#8A8A90"/>
</svg>
