<svg width="16" height="20" viewBox="0 0 16 20" fill="none" xmlns="http://www.w3.org/2000/svg">
<path d="M12.5834 7.25016V5.41683C12.5834 4.20125 12.1005 3.03547 11.2409 2.17592C10.3814 1.31638 9.2156 0.833496 8.00002 0.833496C6.78444 0.833496 5.61866 1.31638 4.75911 2.17592C3.89957 3.03547 3.41669 4.20125 3.41669 5.41683V7.25016C2.68734 7.25016 1.98787 7.53989 1.47214 8.05562C0.956418 8.57134 0.666687 9.27082 0.666687 10.0002V16.4168C0.666687 17.1462 0.956418 17.8456 1.47214 18.3614C1.98787 18.8771 2.68734 19.1668 3.41669 19.1668H12.5834C13.3127 19.1668 14.0122 18.8771 14.5279 18.3614C15.0436 17.8456 15.3334 17.1462 15.3334 16.4168V10.0002C15.3334 9.27082 15.0436 8.57134 14.5279 8.05562C14.0122 7.53989 13.3127 7.25016 12.5834 7.25016ZM5.25002 5.41683C5.25002 4.68748 5.53975 3.98801 6.05548 3.47229C6.5712 2.95656 7.27067 2.66683 8.00002 2.66683C8.72936 2.66683 9.42884 2.95656 9.94456 3.47229C10.4603 3.98801 10.75 4.68748 10.75 5.41683V7.25016H5.25002V5.41683ZM13.5 16.4168C13.5 16.6599 13.4034 16.8931 13.2315 17.065C13.0596 17.2369 12.8265 17.3335 12.5834 17.3335H3.41669C3.17357 17.3335 2.94041 17.2369 2.76851 17.065C2.5966 16.8931 2.50002 16.6599 2.50002 16.4168V10.0002C2.50002 9.75705 2.5966 9.52389 2.76851 9.35198C2.94041 9.18007 3.17357 9.0835 3.41669 9.0835H12.5834C12.8265 9.0835 13.0596 9.18007 13.2315 9.35198C13.4034 9.52389 13.5 9.75705 13.5 10.0002V16.4168Z" fill="#30303C"/>
</svg>
