<svg width="20" height="20" viewBox="0 0 20 20" fill="none" xmlns="http://www.w3.org/2000/svg">
<path d="M16.82 10.9166C16.6183 10.9166 16.4075 10.8524 16.2058 10.8066C15.7974 10.7166 15.3961 10.5971 15.005 10.4491C14.5797 10.2944 14.1123 10.3024 13.6926 10.4716C13.2729 10.6409 12.9306 10.9593 12.7316 11.3658L12.53 11.7783C11.6371 11.2816 10.8167 10.6647 10.0916 9.94492C9.37184 9.21985 8.75497 8.39942 8.2583 7.50659L8.6433 7.24992C9.04972 7.05093 9.36819 6.70866 9.53741 6.28897C9.70664 5.86928 9.71468 5.40184 9.55997 4.97659C9.41442 4.58464 9.295 4.18348 9.20247 3.77575C9.15664 3.57409 9.11997 3.36325 9.09247 3.15242C8.98115 2.50674 8.64296 1.92202 8.13879 1.50356C7.63462 1.0851 6.99761 0.860395 6.34247 0.86992H3.59247C3.19742 0.86621 2.8062 0.947665 2.44545 1.10874C2.08471 1.26981 1.7629 1.50672 1.50195 1.80334C1.24099 2.09997 1.04701 2.44933 0.933209 2.82766C0.819408 3.20598 0.78846 3.60439 0.84247 3.99575C1.33081 7.83602 3.08466 11.4041 5.82698 14.1365C8.56931 16.8689 12.1438 18.6097 15.9858 19.0841H16.3341C17.0101 19.0851 17.6628 18.8371 18.1675 18.3874C18.4575 18.128 18.6891 17.8101 18.8471 17.4545C19.0052 17.099 19.0859 16.714 19.0841 16.3249V13.5749C19.0729 12.9382 18.841 12.3251 18.4281 11.8403C18.0152 11.3555 17.4468 11.029 16.82 10.9166ZM17.2783 16.4166C17.2781 16.5467 17.2503 16.6754 17.1965 16.7939C17.1428 16.9124 17.0644 17.0182 16.9666 17.1041C16.8642 17.1925 16.7444 17.2586 16.615 17.298C16.4856 17.3375 16.3493 17.3495 16.215 17.3333C12.782 16.8931 9.59319 15.3225 7.15163 12.8694C4.71007 10.4162 3.15468 7.21998 2.7308 3.78492C2.71621 3.65064 2.729 3.51481 2.76839 3.38561C2.80778 3.25642 2.87295 3.13655 2.95997 3.03325C3.04587 2.93547 3.15161 2.85711 3.27015 2.80337C3.38869 2.74963 3.51732 2.72175 3.64747 2.72159H6.39747C6.61064 2.71684 6.81879 2.78656 6.9861 2.91873C7.15341 3.05091 7.26941 3.23728 7.31414 3.44575C7.3508 3.69631 7.39664 3.94381 7.45164 4.18825C7.55753 4.67147 7.69846 5.14633 7.8733 5.60909L6.58997 6.20492C6.48024 6.25526 6.38154 6.32679 6.29953 6.41538C6.21752 6.50398 6.15382 6.6079 6.11209 6.72118C6.07035 6.83446 6.0514 6.95487 6.05633 7.0755C6.06126 7.19612 6.08997 7.31459 6.1408 7.42409C7.46007 10.2499 9.73161 12.5215 12.5575 13.8408C12.7806 13.9324 13.031 13.9324 13.2541 13.8408C13.3685 13.7999 13.4735 13.7367 13.5632 13.6548C13.6529 13.573 13.7255 13.4742 13.7766 13.3641L14.345 12.0808C14.8189 12.2502 15.3025 12.391 15.7933 12.5024C16.0377 12.5574 16.2852 12.6033 16.5358 12.6399C16.7443 12.6846 16.9306 12.8006 17.0628 12.968C17.195 13.1353 17.2647 13.3434 17.26 13.5566L17.2783 16.4166Z" fill="#30303C"/>
</svg>
