<svg width="85" height="85" viewBox="0 0 85 85" fill="none" xmlns="http://www.w3.org/2000/svg">
<circle cx="42.5" cy="42.5" r="41.5" fill="white" stroke="#30303C" stroke-width="2"/>
<path d="M50 42H44V36C44 35.7348 43.8946 35.4804 43.7071 35.2929C43.5196 35.1054 43.2652 35 43 35C42.7348 35 42.4804 35.1054 42.2929 35.2929C42.1054 35.4804 42 35.7348 42 36V42H36C35.7348 42 35.4804 42.1054 35.2929 42.2929C35.1054 42.4804 35 42.7348 35 43C35 43.2652 35.1054 43.5196 35.2929 43.7071C35.4804 43.8946 35.7348 44 36 44H42V50C42 50.2652 42.1054 50.5196 42.2929 50.7071C42.4804 50.8946 42.7348 51 43 51C43.2652 51 43.5196 50.8946 43.7071 50.7071C43.8946 50.5196 44 50.2652 44 50V44H50C50.2652 44 50.5196 43.8946 50.7071 43.7071C50.8946 43.5196 51 43.2652 51 43C51 42.7348 50.8946 42.4804 50.7071 42.2929C50.5196 42.1054 50.2652 42 50 42Z" fill="#030311"/>
</svg>
