<svg width="20" height="20" viewBox="0 0 20 20" fill="none" xmlns="http://www.w3.org/2000/svg">
<path d="M1.75004 7.24967C1.99316 7.24967 2.22631 7.1531 2.39822 6.98119C2.57013 6.80928 2.66671 6.57612 2.66671 6.33301V3.58301C2.66671 3.33989 2.76328 3.10674 2.93519 2.93483C3.1071 2.76292 3.34026 2.66634 3.58337 2.66634H6.33337C6.57649 2.66634 6.80965 2.56976 6.98155 2.39786C7.15346 2.22595 7.25004 1.99279 7.25004 1.74967C7.25004 1.50656 7.15346 1.2734 6.98155 1.10149C6.80965 0.929585 6.57649 0.833008 6.33337 0.833008H3.58337C2.85403 0.833008 2.15456 1.12274 1.63883 1.63846C1.12311 2.15419 0.833374 2.85366 0.833374 3.58301V6.33301C0.833374 6.57612 0.929951 6.80928 1.10186 6.98119C1.27377 7.1531 1.50693 7.24967 1.75004 7.24967ZM6.33337 17.333H3.58337C3.34026 17.333 3.1071 17.2364 2.93519 17.0645C2.76328 16.8926 2.66671 16.6595 2.66671 16.4163V13.6663C2.66671 13.4232 2.57013 13.1901 2.39822 13.0182C2.22631 12.8463 1.99316 12.7497 1.75004 12.7497C1.50693 12.7497 1.27377 12.8463 1.10186 13.0182C0.929951 13.1901 0.833374 13.4232 0.833374 13.6663V16.4163C0.833374 17.1457 1.12311 17.8452 1.63883 18.3609C2.15456 18.8766 2.85403 19.1663 3.58337 19.1663H6.33337C6.57649 19.1663 6.80965 19.0698 6.98155 18.8979C7.15346 18.7259 7.25004 18.4928 7.25004 18.2497C7.25004 18.0066 7.15346 17.7734 6.98155 17.6015C6.80965 17.4296 6.57649 17.333 6.33337 17.333ZM14.5834 10.9163C14.8265 10.9163 15.0596 10.8198 15.2316 10.6479C15.4035 10.4759 15.5 10.2428 15.5 9.99967C15.5 9.75656 15.4035 9.5234 15.2316 9.35149C15.0596 9.17959 14.8265 9.08301 14.5834 9.08301H13.5384C13.3738 8.45247 13.0441 7.87719 12.5833 7.4164C12.1225 6.9556 11.5472 6.62594 10.9167 6.46134V5.41634C10.9167 5.17323 10.8201 4.94007 10.6482 4.76816C10.4763 4.59625 10.2432 4.49967 10 4.49967C9.75693 4.49967 9.52377 4.59625 9.35186 4.76816C9.17995 4.94007 9.08337 5.17323 9.08337 5.41634V6.46134C8.45284 6.62594 7.87756 6.9556 7.41676 7.4164C6.95597 7.87719 6.6263 8.45247 6.46171 9.08301H5.41671C5.17359 9.08301 4.94043 9.17959 4.76853 9.35149C4.59662 9.5234 4.50004 9.75656 4.50004 9.99967C4.50004 10.2428 4.59662 10.4759 4.76853 10.6479C4.94043 10.8198 5.17359 10.9163 5.41671 10.9163H6.46171C6.6263 11.5469 6.95597 12.1222 7.41676 12.583C7.87756 13.0437 8.45284 13.3734 9.08337 13.538V14.583C9.08337 14.8261 9.17995 15.0593 9.35186 15.2312C9.52377 15.4031 9.75693 15.4997 10 15.4997C10.2432 15.4997 10.4763 15.4031 10.6482 15.2312C10.8201 15.0593 10.9167 14.8261 10.9167 14.583V13.538C11.5472 13.3734 12.1225 13.0437 12.5833 12.583C13.0441 12.1222 13.3738 11.5469 13.5384 10.9163H14.5834ZM10 11.833C9.63744 11.833 9.28299 11.7255 8.9815 11.524C8.68001 11.3226 8.44502 11.0363 8.30626 10.7013C8.1675 10.3663 8.13119 9.99764 8.20193 9.64201C8.27267 9.28638 8.44728 8.95971 8.70368 8.70331C8.96008 8.44692 9.28674 8.27231 9.64237 8.20157C9.99801 8.13083 10.3666 8.16713 10.7016 8.3059C11.0366 8.44466 11.323 8.67964 11.5244 8.98113C11.7259 9.28262 11.8334 9.63708 11.8334 9.99967C11.8334 10.4859 11.6402 10.9522 11.2964 11.296C10.9526 11.6399 10.4863 11.833 10 11.833ZM18.25 12.7497C18.0069 12.7497 17.7738 12.8463 17.6019 13.0182C17.43 13.1901 17.3334 13.4232 17.3334 13.6663V16.4163C17.3334 16.6595 17.2368 16.8926 17.0649 17.0645C16.893 17.2364 16.6598 17.333 16.4167 17.333H13.6667C13.4236 17.333 13.1904 17.4296 13.0185 17.6015C12.8466 17.7734 12.75 18.0066 12.75 18.2497C12.75 18.4928 12.8466 18.7259 13.0185 18.8979C13.1904 19.0698 13.4236 19.1663 13.6667 19.1663H16.4167C17.1461 19.1663 17.8455 18.8766 18.3613 18.3609C18.877 17.8452 19.1667 17.1457 19.1667 16.4163V13.6663C19.1667 13.4232 19.0701 13.1901 18.8982 13.0182C18.7263 12.8463 18.4932 12.7497 18.25 12.7497ZM16.4167 0.833008H13.6667C13.4236 0.833008 13.1904 0.929585 13.0185 1.10149C12.8466 1.2734 12.75 1.50656 12.75 1.74967C12.75 1.99279 12.8466 2.22595 13.0185 2.39786C13.1904 2.56976 13.4236 2.66634 13.6667 2.66634H16.4167C16.6598 2.66634 16.893 2.76292 17.0649 2.93483C17.2368 3.10674 17.3334 3.33989 17.3334 3.58301V6.33301C17.3334 6.57612 17.43 6.80928 17.6019 6.98119C17.7738 7.1531 18.0069 7.24967 18.25 7.24967C18.4932 7.24967 18.7263 7.1531 18.8982 6.98119C19.0701 6.80928 19.1667 6.57612 19.1667 6.33301V3.58301C19.1667 2.85366 18.877 2.15419 18.3613 1.63846C17.8455 1.12274 17.1461 0.833008 16.4167 0.833008Z" fill="#30303C"/>
</svg>
